<svg xmlns="http://www.w3.org/2000/svg" xmlns:xlink="http://www.w3.org/1999/xlink" contentStyleType="text/css" height="766px" preserveAspectRatio="none" style="width:1073px;height:766px;background:#FFFFFF;" version="1.1" viewBox="0 0 1073 766" width="1073px" zoomAndPan="magnify"><defs/><g><rect fill="none" height="20.9531" style="stroke:none;stroke-width:1;" width="1040.3804" x="15" y="12.7451"/><ellipse cx="117.0859" cy="48.6982" fill="#222222" rx="10" ry="10" style="stroke:#222222;stroke-width:1;"/><rect fill="#F1F1F1" height="33.9688" rx="12.5" ry="12.5" style="stroke:#181818;stroke-width:0.5;" width="192.1719" x="21" y="78.6982"/><text fill="#000000" font-family="sans-serif" font-size="12" lengthAdjust="spacing" textLength="172.1719" x="31" y="99.8369">Display available commands</text><rect fill="#F1F1F1" height="33.9688" rx="12.5" ry="12.5" style="stroke:#181818;stroke-width:0.5;" width="115.3613" x="59.4053" y="132.667"/><text fill="#000000" font-family="sans-serif" font-size="12" lengthAdjust="spacing" textLength="95.3613" x="69.4053" y="153.8057">Read user input</text><line style="stroke:#000000;stroke-width:1.5;" x1="15" x2="15" y1="12.7451" y2="754.4482"/><polygon fill="#F1F1F1" points="678.4438,186.6357,754.8906,186.6357,766.8906,198.6357,754.8906,210.6357,678.4438,210.6357,666.4438,198.6357,678.4438,186.6357" style="stroke:#181818;stroke-width:0.5;"/><text fill="#000000" font-family="sans-serif" font-size="11" lengthAdjust="spacing" textLength="76.4468" x="678.4438" y="202.4438">Is input valid?</text><text fill="#000000" font-family="sans-serif" font-size="11" lengthAdjust="spacing" textLength="19.0083" x="647.4355" y="196.0415">yes</text><rect fill="#F1F1F1" height="33.9688" rx="12.5" ry="12.5" style="stroke:#181818;stroke-width:0.5;" width="158.5859" x="390.4604" y="220.6357"/><text fill="#000000" font-family="sans-serif" font-size="12" lengthAdjust="spacing" textLength="138.5859" x="400.4604" y="241.7744">Check if PAY command</text><polygon fill="#F1F1F1" points="457.7534,274.6045,481.7534,274.6045,493.7534,286.6045,481.7534,298.6045,457.7534,298.6045,445.7534,286.6045,457.7534,274.6045" style="stroke:#181818;stroke-width:0.5;"/><text fill="#000000" font-family="sans-serif" font-size="11" lengthAdjust="spacing" textLength="20.8774" x="459.3147" y="290.4126">PAY</text><rect fill="#F1F1F1" height="33.9688" rx="12.5" ry="12.5" style="stroke:#181818;stroke-width:0.5;" width="123.2656" x="246.7588" y="308.6045"/><text fill="#000000" font-family="sans-serif" font-size="12" lengthAdjust="spacing" textLength="103.2656" x="256.7588" y="329.7432">Process payment</text><rect fill="#F1F1F1" height="33.9688" rx="12.5" ry="12.5" style="stroke:#181818;stroke-width:0.5;" width="170.4395" x="223.1719" y="362.5732"/><text fill="#000000" font-family="sans-serif" font-size="12" lengthAdjust="spacing" textLength="150.4395" x="233.1719" y="383.7119">Display receipt summary</text><rect fill="#F1F1F1" height="33.9688" rx="12.5" ry="12.5" style="stroke:#181818;stroke-width:0.5;" width="133.1738" x="241.8047" y="431.542"/><text fill="#000000" font-family="sans-serif" font-size="12" lengthAdjust="spacing" textLength="113.1738" x="251.8047" y="452.6807">Save receipt to file</text><rect fill="#F1F1F1" height="33.9688" rx="12.5" ry="12.5" style="stroke:#181818;stroke-width:0.5;" width="114.4063" x="251.1885" y="500.5107"/><text fill="#000000" font-family="sans-serif" font-size="12" lengthAdjust="spacing" textLength="94.4063" x="261.1885" y="521.6494">End transaction</text><rect fill="#F1F1F1" height="33.9688" rx="12.5" ry="12.5" style="stroke:#181818;stroke-width:0.5;" width="185.1582" x="538.5361" y="308.6045"/><text fill="#000000" font-family="sans-serif" font-size="12" lengthAdjust="spacing" textLength="165.1582" x="548.5361" y="329.7432">Check if RETURN command</text><polygon fill="#F1F1F1" points="608.4976,362.5732,653.7329,362.5732,665.7329,374.5732,653.7329,386.5732,608.4976,386.5732,596.4976,374.5732,608.4976,362.5732" style="stroke:#181818;stroke-width:0.5;"/><text fill="#000000" font-family="sans-serif" font-size="11" lengthAdjust="spacing" textLength="45.2354" x="608.4976" y="378.3813">RETURN</text><rect fill="#F1F1F1" height="33.9688" rx="12.5" ry="12.5" style="stroke:#181818;stroke-width:0.5;" width="173.8438" x="432.1338" y="396.5732"/><text fill="#000000" font-family="sans-serif" font-size="12" lengthAdjust="spacing" textLength="153.8438" x="442.1338" y="417.7119">Handle return for product</text><rect fill="#F1F1F1" height="33.9688" rx="12.5" ry="12.5" style="stroke:#181818;stroke-width:0.5;" width="190.8887" x="423.6113" y="465.542"/><text fill="#000000" font-family="sans-serif" font-size="12" lengthAdjust="spacing" textLength="170.8887" x="433.6113" y="486.6807">Decrease quantity in receipt</text><rect fill="#F1F1F1" height="33.9688" rx="12.5" ry="12.5" style="stroke:#181818;stroke-width:0.5;" width="155.6504" x="441.2305" y="534.5107"/><text fill="#000000" font-family="sans-serif" font-size="12" lengthAdjust="spacing" textLength="135.6504" x="451.2305" y="555.6494">Update receipt display</text><rect fill="#F1F1F1" height="33.9688" rx="12.5" ry="12.5" style="stroke:#181818;stroke-width:0.5;" width="175.3906" x="655.4795" y="396.5732"/><text fill="#000000" font-family="sans-serif" font-size="12" lengthAdjust="spacing" textLength="155.3906" x="665.4795" y="417.7119">Process product purchase</text><rect fill="#F1F1F1" height="33.9688" rx="12.5" ry="12.5" style="stroke:#181818;stroke-width:0.5;" width="217.3496" x="634.5" y="465.542"/><text fill="#000000" font-family="sans-serif" font-size="12" lengthAdjust="spacing" textLength="197.3496" x="644.5" y="486.6807">Update receipt with new product</text><rect fill="#F1F1F1" height="33.9688" rx="12.5" ry="12.5" style="stroke:#181818;stroke-width:0.5;" width="187.4609" x="649.4443" y="534.5107"/><text fill="#000000" font-family="sans-serif" font-size="12" lengthAdjust="spacing" textLength="167.4609" x="659.4443" y="555.6494">Add product to receipt rows</text><rect fill="#F1F1F1" height="33.9688" rx="12.5" ry="12.5" style="stroke:#181818;stroke-width:0.5;" width="163.7129" x="661.3184" y="588.4795"/><text fill="#000000" font-family="sans-serif" font-size="12" lengthAdjust="spacing" textLength="143.7129" x="671.3184" y="609.6182">Display updated receipt</text><polygon fill="#F1F1F1" points="631.1152,628.4482,643.1152,640.4482,631.1152,652.4482,619.1152,640.4482,631.1152,628.4482" style="stroke:#181818;stroke-width:0.5;"/><polygon fill="#F1F1F1" points="469.7534,658.4482,481.7534,670.4482,469.7534,682.4482,457.7534,670.4482,469.7534,658.4482" style="stroke:#181818;stroke-width:0.5;"/><rect fill="#F1F1F1" height="33.9688" rx="12.5" ry="12.5" style="stroke:#181818;stroke-width:0.5;" width="143.4629" x="861.8496" y="220.6357"/><text fill="#000000" font-family="sans-serif" font-size="12" lengthAdjust="spacing" textLength="123.4629" x="871.8496" y="241.7744">Show error message</text><rect fill="#F1F1F1" height="33.9688" rx="12.5" ry="12.5" style="stroke:#181818;stroke-width:0.5;" width="136.5195" x="865.3213" y="274.6045"/><text fill="#000000" font-family="sans-serif" font-size="12" lengthAdjust="spacing" textLength="116.5195" x="875.3213" y="295.7432">Request valid input</text><polygon fill="#F1F1F1" points="716.6672,688.4482,728.6672,700.4482,716.6672,712.4482,704.6672,700.4482,716.6672,688.4482" style="stroke:#181818;stroke-width:0.5;"/><line style="stroke:#000000;stroke-width:1.5;" x1="217.1719" x2="217.1719" y1="12.7451" y2="754.4482"/><ellipse cx="1031.916" cy="743.4482" fill="none" rx="11" ry="11" style="stroke:#222222;stroke-width:1;"/><ellipse cx="1031.916" cy="743.4482" fill="#222222" rx="6" ry="6" style="stroke:#222222;stroke-width:1;"/><line style="stroke:#000000;stroke-width:1.5;" x1="1009.3125" x2="1009.3125" y1="12.7451" y2="754.4482"/><line style="stroke:#000000;stroke-width:1.5;" x1="1053.5195" x2="1053.5195" y1="12.7451" y2="754.4482"/><line style="stroke:#181818;stroke-width:1;" x1="117.0859" x2="117.0859" y1="58.6982" y2="78.6982"/><polygon fill="#181818" points="113.0859,68.6982,117.0859,78.6982,121.0859,68.6982,117.0859,72.6982" style="stroke:#181818;stroke-width:1;"/><line style="stroke:#181818;stroke-width:1;" x1="117.0859" x2="117.0859" y1="112.667" y2="132.667"/><polygon fill="#181818" points="113.0859,122.667,117.0859,132.667,121.0859,122.667,117.0859,126.667" style="stroke:#181818;stroke-width:1;"/><line style="stroke:#181818;stroke-width:1;" x1="308.3916" x2="308.3916" y1="342.5732" y2="362.5732"/><polygon fill="#181818" points="304.3916,352.5732,308.3916,362.5732,312.3916,352.5732,308.3916,356.5732" style="stroke:#181818;stroke-width:1;"/><line style="stroke:#181818;stroke-width:1;" x1="308.3916" x2="308.3916" y1="396.542" y2="431.542"/><polygon fill="#181818" points="304.3916,421.542,308.3916,431.542,312.3916,421.542,308.3916,425.542" style="stroke:#181818;stroke-width:1;"/><line style="stroke:#181818;stroke-width:1;" x1="308.3916" x2="308.3916" y1="465.5107" y2="500.5107"/><polygon fill="#181818" points="304.3916,490.5107,308.3916,500.5107,312.3916,490.5107,308.3916,494.5107" style="stroke:#181818;stroke-width:1;"/><line style="stroke:#181818;stroke-width:1;" x1="519.0557" x2="519.0557" y1="430.542" y2="465.542"/><polygon fill="#181818" points="515.0557,455.542,519.0557,465.542,523.0557,455.542,519.0557,459.542" style="stroke:#181818;stroke-width:1;"/><line style="stroke:#181818;stroke-width:1;" x1="519.0557" x2="519.0557" y1="499.5107" y2="534.5107"/><polygon fill="#181818" points="515.0557,524.5107,519.0557,534.5107,523.0557,524.5107,519.0557,528.5107" style="stroke:#181818;stroke-width:1;"/><line style="stroke:#181818;stroke-width:1;" x1="743.1748" x2="743.1748" y1="430.542" y2="465.542"/><polygon fill="#181818" points="739.1748,455.542,743.1748,465.542,747.1748,455.542,743.1748,459.542" style="stroke:#181818;stroke-width:1;"/><line style="stroke:#181818;stroke-width:1;" x1="743.1748" x2="743.1748" y1="499.5107" y2="534.5107"/><polygon fill="#181818" points="739.1748,524.5107,743.1748,534.5107,747.1748,524.5107,743.1748,528.5107" style="stroke:#181818;stroke-width:1;"/><line style="stroke:#181818;stroke-width:1;" x1="743.1748" x2="743.1748" y1="568.4795" y2="588.4795"/><polygon fill="#181818" points="739.1748,578.4795,743.1748,588.4795,747.1748,578.4795,743.1748,582.4795" style="stroke:#181818;stroke-width:1;"/><line style="stroke:#181818;stroke-width:1;" x1="596.4976" x2="519.0557" y1="374.5732" y2="374.5732"/><line style="stroke:#181818;stroke-width:1;" x1="519.0557" x2="519.0557" y1="374.5732" y2="396.5732"/><polygon fill="#181818" points="515.0557,386.5732,519.0557,396.5732,523.0557,386.5732,519.0557,390.5732" style="stroke:#181818;stroke-width:1;"/><line style="stroke:#181818;stroke-width:1;" x1="665.7329" x2="743.1748" y1="374.5732" y2="374.5732"/><line style="stroke:#181818;stroke-width:1;" x1="743.1748" x2="743.1748" y1="374.5732" y2="396.5732"/><polygon fill="#181818" points="739.1748,386.5732,743.1748,396.5732,747.1748,386.5732,743.1748,390.5732" style="stroke:#181818;stroke-width:1;"/><line style="stroke:#181818;stroke-width:1;" x1="519.0557" x2="519.0557" y1="568.4795" y2="640.4482"/><line style="stroke:#181818;stroke-width:1;" x1="519.0557" x2="619.1152" y1="640.4482" y2="640.4482"/><polygon fill="#181818" points="609.1152,636.4482,619.1152,640.4482,609.1152,644.4482,613.1152,640.4482" style="stroke:#181818;stroke-width:1;"/><line style="stroke:#181818;stroke-width:1;" x1="743.1748" x2="743.1748" y1="622.4482" y2="640.4482"/><line style="stroke:#181818;stroke-width:1;" x1="743.1748" x2="643.1152" y1="640.4482" y2="640.4482"/><polygon fill="#181818" points="653.1152,636.4482,643.1152,640.4482,653.1152,644.4482,649.1152,640.4482" style="stroke:#181818;stroke-width:1;"/><line style="stroke:#181818;stroke-width:1;" x1="631.1152" x2="631.1152" y1="342.5732" y2="362.5732"/><polygon fill="#181818" points="627.1152,352.5732,631.1152,362.5732,635.1152,352.5732,631.1152,356.5732" style="stroke:#181818;stroke-width:1;"/><line style="stroke:#181818;stroke-width:1;" x1="445.7534" x2="308.3916" y1="286.6045" y2="286.6045"/><line style="stroke:#181818;stroke-width:1;" x1="308.3916" x2="308.3916" y1="286.6045" y2="308.6045"/><polygon fill="#181818" points="304.3916,298.6045,308.3916,308.6045,312.3916,298.6045,308.3916,302.6045" style="stroke:#181818;stroke-width:1;"/><line style="stroke:#181818;stroke-width:1;" x1="493.7534" x2="631.1152" y1="286.6045" y2="286.6045"/><line style="stroke:#181818;stroke-width:1;" x1="631.1152" x2="631.1152" y1="286.6045" y2="308.6045"/><polygon fill="#181818" points="627.1152,298.6045,631.1152,308.6045,635.1152,298.6045,631.1152,302.6045" style="stroke:#181818;stroke-width:1;"/><line style="stroke:#181818;stroke-width:1;" x1="308.3916" x2="308.3916" y1="534.4795" y2="670.4482"/><line style="stroke:#181818;stroke-width:1;" x1="308.3916" x2="457.7534" y1="670.4482" y2="670.4482"/><polygon fill="#181818" points="447.7534,666.4482,457.7534,670.4482,447.7534,674.4482,451.7534,670.4482" style="stroke:#181818;stroke-width:1;"/><line style="stroke:#181818;stroke-width:1;" x1="631.1152" x2="631.1152" y1="652.4482" y2="670.4482"/><line style="stroke:#181818;stroke-width:1;" x1="631.1152" x2="481.7534" y1="670.4482" y2="670.4482"/><polygon fill="#181818" points="491.7534,666.4482,481.7534,670.4482,491.7534,674.4482,487.7534,670.4482" style="stroke:#181818;stroke-width:1;"/><line style="stroke:#181818;stroke-width:1;" x1="469.7534" x2="469.7534" y1="254.6045" y2="274.6045"/><polygon fill="#181818" points="465.7534,264.6045,469.7534,274.6045,473.7534,264.6045,469.7534,268.6045" style="stroke:#181818;stroke-width:1;"/><line style="stroke:#181818;stroke-width:1;" x1="933.5811" x2="933.5811" y1="254.6045" y2="274.6045"/><polygon fill="#181818" points="929.5811,264.6045,933.5811,274.6045,937.5811,264.6045,933.5811,268.6045" style="stroke:#181818;stroke-width:1;"/><line style="stroke:#181818;stroke-width:1;" x1="666.4438" x2="469.7534" y1="198.6357" y2="198.6357"/><line style="stroke:#181818;stroke-width:1;" x1="469.7534" x2="469.7534" y1="198.6357" y2="220.6357"/><polygon fill="#181818" points="465.7534,210.6357,469.7534,220.6357,473.7534,210.6357,469.7534,214.6357" style="stroke:#181818;stroke-width:1;"/><line style="stroke:#181818;stroke-width:1;" x1="766.8906" x2="933.5811" y1="198.6357" y2="198.6357"/><line style="stroke:#181818;stroke-width:1;" x1="933.5811" x2="933.5811" y1="198.6357" y2="220.6357"/><polygon fill="#181818" points="929.5811,210.6357,933.5811,220.6357,937.5811,210.6357,933.5811,214.6357" style="stroke:#181818;stroke-width:1;"/><line style="stroke:#181818;stroke-width:1;" x1="469.7534" x2="469.7534" y1="682.4482" y2="700.4482"/><line style="stroke:#181818;stroke-width:1;" x1="469.7534" x2="704.6672" y1="700.4482" y2="700.4482"/><polygon fill="#181818" points="694.6672,696.4482,704.6672,700.4482,694.6672,704.4482,698.6672,700.4482" style="stroke:#181818;stroke-width:1;"/><line style="stroke:#181818;stroke-width:1;" x1="933.5811" x2="933.5811" y1="308.5732" y2="700.4482"/><line style="stroke:#181818;stroke-width:1;" x1="933.5811" x2="728.6672" y1="700.4482" y2="700.4482"/><polygon fill="#181818" points="738.6672,696.4482,728.6672,700.4482,738.6672,704.4482,734.6672,700.4482" style="stroke:#181818;stroke-width:1;"/><line style="stroke:#181818;stroke-width:1;" x1="117.0859" x2="117.0859" y1="166.6357" y2="171.6357"/><line style="stroke:#181818;stroke-width:1;" x1="117.0859" x2="716.6672" y1="171.6357" y2="171.6357"/><line style="stroke:#181818;stroke-width:1;" x1="716.6672" x2="716.6672" y1="171.6357" y2="186.6357"/><polygon fill="#181818" points="712.6672,176.6357,716.6672,186.6357,720.6672,176.6357,716.6672,180.6357" style="stroke:#181818;stroke-width:1;"/><line style="stroke:#181818;stroke-width:1;" x1="716.6672" x2="716.6672" y1="712.4482" y2="717.4482"/><line style="stroke:#181818;stroke-width:1;" x1="716.6672" x2="1031.916" y1="717.4482" y2="717.4482"/><line style="stroke:#181818;stroke-width:1;" x1="1031.916" x2="1031.916" y1="717.4482" y2="732.4482"/><polygon fill="#181818" points="1027.916,722.4482,1031.916,732.4482,1035.916,722.4482,1031.916,726.4482" style="stroke:#181818;stroke-width:1;"/><text fill="#000000" font-family="sans-serif" font-size="18" lengthAdjust="spacing" textLength="43.9717" x="94.1001" y="29.4531">Start</text><text fill="#000000" font-family="sans-serif" font-size="18" lengthAdjust="spacing" textLength="107.3936" x="559.5454" y="29.4531">Check input</text><text fill="#000000" font-family="sans-serif" font-size="18" lengthAdjust="spacing" textLength="34.207" x="1014.3125" y="29.4531">End</text><!--SRC=[VLBBJiCm4BpxA_P8Vo4ve0egmGLLBJrmNEmDiN1iruz6aVBnE74URH7aujYpCvvPRtyCw4BF_B2mubbwgx03lA1K-Aa8k6aQrCANh3WG2eYU74XjOoWPwvzgujzvspDPmSEhppkue9BYSGEX9WqF7VaDW_GL4wE2_VPZ5Yz7QA2dmqmPJqR2tXbEteF5hY4ToXMPpJhY96q07vEQwwugZdYX1Gu6Agde2jvf0S6XziY3D3eZf3oj9OlTm-xzT7YxTJoxpjYTyP7-achLO254fw4o3gmp8lAh63aASKVe2SuHTP2XIrsSZT-Ldgp0iAOIkGbhqOt_smxcgy56n-jqsV_2hGmrQ6h_SBmLOX5CdPrPphJ-FjlqJ77K5xzZaHQoOklVag0urgO5SYxrhKa9y6lod4Rn7CbFKpQFOsQpFZthCD36_W00]--></g></svg>